<svg xmlns="http://www.w3.org/2000/svg" width="512" height="512"><g xmlns="http://www.w3.org/2000/svg" fill="#f55a6a"><path d="M421 422V45c0-24.813-20.187-45-45-45H76C51.187 0 31 20.187 31 45v75h60v347c0 24.813 20.187 45 45 45h300c24.813 0 45-20.187 45-45v-45h-60zM61 90V45c0-8.271 6.729-15 15-15s15 6.729 15 15v45zm60 377V45a44.79 44.79 0 00-2.58-15H376c8.271 0 15 6.729 15 15v377H151v45c0 8.271-6.729 15-15 15s-15-6.729-15-15zm330 0c0 8.271-6.729 15-15 15H178.42a44.79 44.79 0 002.58-15v-15h270z" data-original="#000000"/><path d="M151 242h210v30H151zm0 60h210v30H151zm0 60h210v30H151zm210-242H151v92h210zm-30 62H181v-32h150zM211 60h30v30h-30zm60 0h30v30h-30zm60 0h30v30h-30zm-180 0h30v30h-30z" data-original="#000000"/></g></svg>