<svg xmlns="http://www.w3.org/2000/svg" width="512" height="512" viewBox="0 0 496 496"><g xmlns="http://www.w3.org/2000/svg" fill="#2563ff"><path d="M464 96v-9.536l-29.6-73.992C431.384 4.896 424.16 0 416 0c-8.16 0-15.384 4.896-18.4 12.472L368 86.464V96H143.528C139.536 60.056 109 32 72 32 32.296 32 0 64.304 0 104v320c0 39.696 32.296 72 72 72h424V96h-32zm-51.536-77.6v-.008c1.16-2.904 5.92-2.92 7.08.008L444.192 80h-56.368l24.64-61.6zM448 96v168h-24V96h24zm-64 0h24v168h-24V96zm0 184h64v32c0 4.408-3.584 8-8 8h-48c-4.416 0-8-3.592-8-8v-32zm-240 71.384c7.04-1.016 13.848-3.32 20.008-6.88l-8.016-13.848c-3.72 2.152-7.792 3.6-11.992 4.456v-78.304c18.232 3.72 32 19.872 32 39.192a40.031 40.031 0 01-9.416 25.776l12.232 10.312A56.035 56.035 0 00192 296c0-28.152-20.912-51.456-48-55.36v-16.168c35.944 4 64 34.536 64 71.528s-28.056 67.536-64 71.528v-16.144zM144 424v-40.408c44.784-4.056 80-41.768 80-87.592s-35.216-83.536-80-87.592V144h16v34.392l6 1.552a119.465 119.465 0 0130.848 12.768l5.344 3.16 24.312-24.32 33.944 33.944-24.312 24.312 3.152 5.336c5.664 9.6 9.96 19.976 12.768 30.856l1.552 6H288v48h-34.392l-1.552 6a119.402 119.402 0 01-12.768 30.856l-3.152 5.336 24.312 24.312-33.944 33.944-24.312-24.32-5.344 3.16A119.186 119.186 0 01166 412.056l-6 1.552V448h-20.2c2.672-7.52 4.2-15.576 4.2-24zM16 104c0-30.88 25.128-56 56-56s56 25.12 56 56v274.848C114.792 362.496 94.608 352 72 352c-22.608 0-42.792 10.496-56 26.848V104zm56 376c-30.872 0-56-25.12-56-56s25.128-56 56-56 56 25.12 56 56-25.128 56-56 56zm408 0H117.152a72.484 72.484 0 0014.672-16H176v-38.144a134.644 134.644 0 0023.544-9.744l26.96 26.968 56.568-56.568-26.96-26.968A135.23 135.23 0 00265.848 336H304v-80h-38.152a134.613 134.613 0 00-9.736-23.544l26.96-26.968-56.568-56.568-26.96 26.968A134.899 134.899 0 00176 166.144V128h-32v-16h224v200c0 13.232 10.768 24 24 24h48c13.232 0 24-10.768 24-24V112h16v368z" data-original="#000000"/><path d="M304 464h160V352H304v112zm16-96h128v80H320v-80z" data-original="#000000"/><path data-original="#000000" d="M368 384h64v16h-64zm-32 0h16v16h-16zm0 32h64v16h-64zm80 0h16v16h-16zM72 384c-22.056 0-40 17.944-40 40s17.944 40 40 40v-16c-13.232 0-24-10.768-24-24s10.768-24 24-24 24 10.768 24 24h16c0-22.056-17.944-40-40-40z"/></g></svg>