<svg xmlns="http://www.w3.org/2000/svg" width="512" height="512" viewBox="0 0 508.377 508.377"><path xmlns="http://www.w3.org/2000/svg" d="M475.171 128.998c8.471-7.896 13.781-19.122 13.781-31.566 0-23.841-19.46-43.236-43.38-43.236a43.23 43.23 0 00-25.416 8.23C374.011 22.759 315.389.991 254.188.991c-52.783 0-103.123 15.864-146.018 45.929-9.546-8.522-22.142-13.718-35.937-13.718-29.731 0-53.919 24.104-53.919 53.732 0 15.277 6.441 29.074 16.747 38.866C12.116 164.59 0 208.898 0 254.189c0 49.715 14.374 97.585 41.616 138.863-5.969 6.994-9.582 16.043-9.582 25.923 0 22.094 18.034 40.07 40.201 40.07 8.56 0 16.497-2.689 23.024-7.252 44.93 35.88 101.175 55.594 158.93 55.594 67.891 0 131.719-26.333 179.728-74.149 48.017-47.824 74.461-111.411 74.461-179.048-.001-44.031-11.47-87.183-33.207-125.192zm-80.952 177.21a447.756 447.756 0 002.941-44.52h95.471c-4.659 23.429-30.974 45.885-73.896 62.762-5.623-8.722-14.299-15.305-24.516-18.242zm-40.38 41.541c0-15.57 12.731-28.237 28.381-28.237 15.649 0 28.38 12.667 28.38 28.237s-12.731 28.236-28.38 28.236c-15.65.001-28.381-12.666-28.381-28.236zm-14.929-2.406c-24.727 3.917-50.641 6.064-77.221 6.404v-90.059h120.468a432.749 432.749 0 01-2.854 42.933c-21.767 1.449-39.19 18.962-40.393 40.722zM121.284 205.162a7.499 7.499 0 008.402-6.473 392.882 392.882 0 014.813-28.759c33.921-8.203 72.206-12.789 112.189-13.3v90.059H126.223c.097-5.771.3-11.541.619-17.229a7.5 7.5 0 00-14.976-.84 456.182 456.182 0 00-.645 18.07H15.778c4.462-21.969 28.285-43.466 66.916-59.926 11.049-4.708 22.995-8.899 35.666-12.556a422.127 422.127 0 00-3.548 22.552 7.498 7.498 0 006.472 8.402zm275.873 41.527c-.404-24.972-2.825-49.334-7.123-72.477 12.665 3.656 24.605 7.845 35.65 12.551 38.631 16.46 62.454 37.957 66.916 59.926zm-15.002 0H261.688V156.63c40.003.511 78.305 5.102 112.239 13.313 4.98 24.291 7.784 50.137 8.228 76.746zM261.688 141.628V16.418c30.578 3.343 59.375 27.059 81.771 67.66 11.29 20.466 20.28 44.02 26.755 69.62-33.263-7.435-70.175-11.59-108.526-12.07zm-15 0c-38.323.479-75.208 4.628-108.452 12.053 8.546-33.685 21.348-63.678 37.389-87.003 20.801-30.247 45.232-47.479 71.063-50.274zM111.22 261.689c.404 24.972 2.825 49.334 7.123 72.477-12.665-3.656-24.605-7.845-35.65-12.551-38.631-16.46-62.454-37.957-66.916-59.926zm15.003 0h120.466v90.059c-40.003-.511-78.305-5.102-112.239-13.313-4.979-24.292-7.784-50.137-8.227-76.746zm120.465 105.06V491.96c-30.577-3.343-59.374-27.059-81.771-67.66-11.29-20.466-20.28-44.02-26.755-69.62 33.265 7.435 70.176 11.59 108.526 12.069zM473.952 97.431c0 15.57-12.731 28.237-28.38 28.237s-28.381-12.667-28.381-28.237 12.731-28.236 28.381-28.236c15.648 0 28.38 12.667 28.38 28.236zm-64.285-24.237a42.89 42.89 0 00-7.476 24.237c0 23.841 19.46 43.237 43.381 43.237a43.255 43.255 0 0017.01-3.467 236.6 236.6 0 0126.783 73.459c-13.019-14.112-32.498-26.916-57.8-37.697-13.775-5.869-28.86-10.968-44.957-15.258-6.88-29.833-16.991-57.267-30.013-80.873-12.524-22.703-27.074-40.663-42.975-53.4 35.203 8.967 68.041 25.877 96.047 49.762zM33.315 86.936c0-21.357 17.459-38.732 38.919-38.732s38.919 17.375 38.919 38.732-17.459 38.732-38.919 38.732-38.919-17.375-38.919-38.732zm13.997 47.625a53.713 53.713 0 0024.922 6.107c29.731 0 53.919-24.104 53.919-53.732 0-10.469-3.031-20.241-8.249-28.512 23.627-16.361 49.625-28.165 77.062-35.104-32.88 26.17-59.273 73.778-73.187 134.383-16.101 4.29-31.188 9.39-44.966 15.261-25.302 10.781-44.781 23.585-57.8 37.697a236.522 236.522 0 0128.299-76.1zm24.922 309.483c-13.896 0-25.201-11.246-25.201-25.07 0-13.823 11.305-25.069 25.201-25.069s25.201 11.246 25.201 25.069c0 13.824-11.306 25.07-25.201 25.07zm33.557-3.042a39.73 39.73 0 006.644-22.028c0-22.094-18.034-40.069-40.201-40.069a40.06 40.06 0 00-18.873 4.703c-17.13-26.294-28.734-55.394-34.381-85.928 13.019 14.127 32.51 26.944 57.834 37.734 13.775 5.869 28.86 10.968 44.957 15.258 6.88 29.833 16.991 57.267 30.013 80.873 12.497 22.654 27.011 40.583 42.872 53.315-32.214-8.249-62.566-23.126-88.865-43.858zm317.541-18.393c-30.906 30.782-68.783 52.096-110.084 62.495 13.095-10.402 25.298-24.292 36.152-41.397a7.5 7.5 0 00-2.314-10.351 7.498 7.498 0 00-10.351 2.314c-21.271 33.52-47.673 53.225-75.046 56.284V366.749c27.167-.339 53.676-2.521 79.005-6.504 3.252 10.713 10.571 19.676 20.16 25.109-2.87 8.002-6.01 15.733-9.375 23.041a7.5 7.5 0 1013.625 6.273c3.553-7.716 6.864-15.868 9.885-24.296 2.353.395 4.767.612 7.231.612 23.92 0 43.38-19.396 43.38-43.236a43.1 43.1 0 00-1.059-9.463c24.903-9.823 44.779-21.527 59.098-34.829a107.438 107.438 0 005.767-5.77c-8.673 47.058-31.378 90.366-66.074 124.923z" fill="#306bff" data-original="#000000"/></svg>