<svg xmlns="http://www.w3.org/2000/svg" width="512" height="512" viewBox="0 0 64 64"><g xmlns="http://www.w3.org/2000/svg"><path d="M32 25a4 4 0 104 4 4 4 0 00-4-4zm0 6a2 2 0 112-2 2 2 0 01-2 2z" data-original="#000000"/><path d="M40.24 26.03l-.67-.17.36-.59a1 1 0 00-.15-1.22l-2.83-2.83a1.014 1.014 0 00-1.22-.15l-.59.36-.17-.67A1 1 0 0034 20h-4a1 1 0 00-.97.76l-.17.67-.59-.36a1.014 1.014 0 00-1.22.15l-2.83 2.83a1 1 0 00-.15 1.22l.36.59-.67.17A1 1 0 0023 27v4a1 1 0 00.76.97l.67.17-.36.59a1 1 0 00.15 1.22l2.83 2.83a1.012 1.012 0 001.22.15l.59-.36.17.67A1 1 0 0030 38h4a1 1 0 00.97-.76l.17-.67.59.36a1.014 1.014 0 001.22-.15l2.83-2.83a1 1 0 00.15-1.22l-.36-.59.67-.17A1 1 0 0041 31v-4a1 1 0 00-.76-.97zM39 30.22l-1.22.3a1.007 1.007 0 00-.68.59.989.989 0 00.07.9l.64 1.08-1.72 1.72-1.08-.65a1.019 1.019 0 00-.9-.06 1.007 1.007 0 00-.59.68l-.3 1.22h-2.44l-.3-1.22a1.007 1.007 0 00-.59-.68 1.019 1.019 0 00-.9.06l-1.08.65-1.72-1.72.64-1.08a.989.989 0 00.07-.9 1.007 1.007 0 00-.68-.59l-1.22-.3v-2.44l1.22-.3a1.007 1.007 0 00.68-.59.989.989 0 00-.07-.9l-.64-1.08 1.72-1.72 1.08.64a.989.989 0 00.9.07 1.007 1.007 0 00.59-.68l.3-1.22h2.44l.3 1.22a1.007 1.007 0 00.59.68.989.989 0 00.9-.07l1.08-.64 1.72 1.72-.64 1.08a.989.989 0 00-.07.9 1.007 1.007 0 00.68.59l1.22.3zM53 39v-6a3 3 0 00-3-3h-7v2h7a1 1 0 011 1v6zm6 2H45a3.009 3.009 0 00-3 3v10a3.009 3.009 0 003 3h3.59l-1.43 3.63a1 1 0 00.93 1.37h7.82a1 1 0 00.93-1.37L55.41 57H59a3.009 3.009 0 003-3V44a3.009 3.009 0 00-3-3zm-9.44 19l1.19-3h2.5l1.19 3zM60 54a1 1 0 01-1 1H45a1 1 0 01-1-1v-1h16zm0-3H44v-7a1 1 0 011-1h14a1 1 0 011 1zM19 41H5a3 3 0 00-3 3v10a3 3 0 003 3h3.594l-1.437 3.632A1 1 0 008.087 62h7.826a1 1 0 00.93-1.368L15.406 57H19a3 3 0 003-3V44a3 3 0 00-3-3zM5 43h14a1 1 0 011 1v7H4v-7a1 1 0 011-1zm9.442 17H9.558l1.187-3h2.51zM19 55H5a1 1 0 01-1-1v-1h16v1a1 1 0 01-1 1z" data-original="#000000"/><path d="M11 46h2v2h-2zm4 0h2v2h-2zm-8 0h2v2H7zm44 0h2v2h-2zm4 0h2v2h-2zm-8 0h2v2h-2zm-2-34a4 4 0 00-4-4 3.886 3.886 0 00-.684-2.157 4.006 4.006 0 00-2.685-1.793 3.9 3.9 0 00-2.36.349A7 7 0 0023.071 8H23a4 4 0 000 8h18a4 4 0 004-4zm-4 2H23a2 2 0 010-4h1a1 1 0 001-1 5 5 0 019.2-2.709 1 1 0 001.5.21 1.963 1.963 0 011.624-.476 2.038 2.038 0 011.326.916 1.78 1.78 0 01.23 1.724A1 1 0 0039.816 10H41a2 2 0 010 4zm14 1v8a3 3 0 01-3 3h-9v2h9a5.006 5.006 0 005-5v-8a5.006 5.006 0 00-5-5h-5v2h5a3 3 0 013 3zM11 33v6h2v-6a1 1 0 011-1h7v-2h-7a3 3 0 00-3 3zm1-5h9v-2h-9a3 3 0 01-3-3v-8a3 3 0 013-3h5v-2h-5a5.006 5.006 0 00-5 5v8a5.006 5.006 0 005 5z" data-original="#000000"/></g></svg>