<svg xmlns="http://www.w3.org/2000/svg" width="512" height="512" viewBox="0 0 24 24"><path d="M6.6 16.48l1.23 3.66c-1.77.57-2.99.94-3.08.93-.78-.03-1.54-.54-1.8-1.32-.33-1.02.21-2.12 1.23-2.46zm8.71-2.9l1.24 3.69c-1.62.54-3.37 1.12-5.02 1.66l-1.23-3.68zm8.69-.2c0 .82-.51 1.58-1.32 1.84 0 0-.96.32-2.44.81l-1.23-3.68 2.43-.81c1.02-.33 2.13.21 2.46 1.23.07.2.1.41.1.61z" data-original="#e91e63" xmlns="http://www.w3.org/2000/svg" fill="#e91e63"/><path xmlns="http://www.w3.org/2000/svg" d="M3.75 7.97l1.23 3.66c-1.77.57-2.99.94-3.08.93-.78-.03-1.54-.54-1.8-1.32-.33-1.02.2-2.12 1.23-2.46zm8.7-2.9l1.24 3.69c-1.61.54-3.36 1.12-5.01 1.66L7.45 6.74zm7.36 1.65s-.95.32-2.42.81l-1.24-3.69 2.43-.81c1.02-.33 2.13.21 2.47 1.23.32 1.02-.21 2.13-1.24 2.46z" fill="#00bcd4" data-original="#00bcd4"/><path xmlns="http://www.w3.org/2000/svg" d="M17.39 7.53c-1.03.34-2.31.77-3.7 1.23l-1.24-3.69 3.7-1.23z" fill="#689f38" data-original="#689f38"/><path xmlns="http://www.w3.org/2000/svg" d="M16.15 3.84l-3.7 1.23-.84-2.51c-.32-1.03.21-2.13 1.23-2.46 1.03-.33 2.14.21 2.47 1.22z" fill="#ffc107" data-original="#ffc107"/><path xmlns="http://www.w3.org/2000/svg" d="M20.24 16.03c-1.03.35-2.31.78-3.69 1.24l-1.24-3.69 3.7-1.23z" fill="#b71c1c" data-original="#b71c1c"/><path xmlns="http://www.w3.org/2000/svg" d="M19.01 12.35l-3.7 1.23-1.62-4.82c1.39-.46 2.67-.89 3.7-1.23zm.84 8.65c-1.14.33-2.14-.32-2.46-1.22l-.84-2.51c1.38-.46 2.66-.89 3.69-1.24l.84 2.51c.33 1.03-.2 2.13-1.23 2.46z" fill="#ffc107" data-original="#ffc107"/><path xmlns="http://www.w3.org/2000/svg" d="M8.68 10.42c-1.35.44-2.63.86-3.7 1.21L3.75 7.97l3.7-1.23z" fill="#009688" data-original="#009688"/><path xmlns="http://www.w3.org/2000/svg" d="M7.45 6.74l-3.7 1.23-.84-2.51C2.59 4.44 3.12 3.33 4.14 3c1.03-.33 2.14.21 2.47 1.23z" fill="#4caf50" data-original="#4caf50"/><path xmlns="http://www.w3.org/2000/svg" d="M11.53 18.93c-1.35.44-2.62.86-3.7 1.21L6.6 16.48l3.7-1.23z" fill="#880e4f" data-original="#880e4f"/><path xmlns="http://www.w3.org/2000/svg" d="M10.3 15.25l-3.7 1.23-1.62-4.85c1.07-.35 2.35-.77 3.7-1.21zm.84 8.66c-1.14.33-2.14-.32-2.46-1.22l-.85-2.55c1.08-.35 2.35-.77 3.7-1.21l.84 2.52c.33 1.03-.2 2.13-1.23 2.46z" fill="#4caf50" data-original="#4caf50"/></svg>