<svg xmlns="http://www.w3.org/2000/svg" width="512" height="512" viewBox="0 0 29.683 29.682"><g xmlns="http://www.w3.org/2000/svg" fill="#f55767"><path d="M27.709 23.226a14.738 14.738 0 001.974-7.376c0-5.449-2.96-10.208-7.349-12.789-.026-.02-.044-.048-.073-.064-.022-.014-.05-.013-.073-.024a14.733 14.733 0 00-14.69-.002c-.025.013-.052.013-.076.027-.03.017-.048.047-.075.066a14.91 14.91 0 00-5.29 5.286c-.02.029-.049.046-.067.077-.014.025-.014.053-.025.077a14.723 14.723 0 00-1.962 7.331c0 .004-.003.008-.003.014l.003.015a14.734 14.734 0 001.966 7.354c.009.018.009.037.019.055.019.03.043.053.063.082a14.924 14.924 0 002.299 2.992 1.095 1.095 0 001.554 0c.43-.43.43-1.125 0-1.555-.527-.527-.993-1.1-1.412-1.695l1.838-1.061a1.098 1.098 0 10-1.098-1.903l-1.839 1.062a12.532 12.532 0 01-1.139-4.242l2.123.002h.001a1.1 1.1 0 00.001-2.201l-2.123-.001c.13-1.505.529-2.931 1.142-4.239l1.831 1.059a1.095 1.095 0 001.502-.401 1.1 1.1 0 00-.4-1.502L4.497 8.608A12.743 12.743 0 017.6 5.504l1.059 1.835a1.1 1.1 0 001.904-1.099L9.505 4.406a12.537 12.537 0 014.238-1.142v2.123a1.1 1.1 0 002.2 0V3.264c1.504.13 2.928.529 4.236 1.142l-1.06 1.835a1.097 1.097 0 00.951 1.649c.379 0 .748-.197.953-.55l1.061-1.837a12.628 12.628 0 015.345 9.247h-2.125a1.1 1.1 0 100 2.2h2.128a12.54 12.54 0 01-1.14 4.242l-1.841-1.062a1.1 1.1 0 00-1.1 1.904l1.842 1.062a12.645 12.645 0 01-1.39 1.672 1.1 1.1 0 001.56 1.55 14.88 14.88 0 002.281-2.98c.016-.021.036-.04.051-.064.008-.018.006-.033.014-.048z" data-original="#000000"/><path d="M16.124 14.07a2.187 2.187 0 00-1.282-.419c-1.212 0-2.198.986-2.198 2.198s.986 2.198 2.198 2.198 2.199-.984 2.199-2.197c0-.074-.016-.146-.021-.217l7.344-5.28-8.24 3.717zm-1.686.763l-.049.021c.016-.007.031-.016.049-.021zm-.696 1.017c0-.404.23-.744.558-.936l1.083 1.871c-.162.095-.34.164-.541.164a1.1 1.1 0 01-1.1-1.099zm6.596 8.424H9.345c-.604 0-1.1.496-1.1 1.101v2.198c0 .604.495 1.1 1.1 1.1h10.993c.604 0 1.1-.495 1.1-1.1v-2.198c0-.605-.497-1.101-1.1-1.101z" data-original="#000000"/></g></svg>