<svg xmlns="http://www.w3.org/2000/svg" width="512" height="512" viewBox="0 0 937.5 937.5"><g xmlns="http://www.w3.org/2000/svg"><path d="M93.75 62.5v156.25H125V62.5c0-17.262 13.988-31.25 31.25-31.25h625c17.262 0 31.25 13.988 31.25 31.25h31.25c0-34.516-27.984-62.5-62.5-62.5h-625c-34.516 0-62.5 27.984-62.5 62.5zm-31.25 875h718.75c34.516 0 62.5-27.984 62.5-62.5v-62.5H812.5V875c0 17.262-13.988 31.25-31.25 31.25S750 892.262 750 875v-46.875c0-8.633-6.992-15.625-15.625-15.625H125V500H93.75v312.5H15.625C6.992 812.5 0 819.492 0 828.125V875c0 34.516 27.984 62.5 62.5 62.5zm-31.25-93.75h687.5V875a62.044 62.044 0 008.395 31.25H62.5c-17.262 0-31.25-13.988-31.25-31.25zm-15.625-375h312.5c8.633 0 15.625-6.992 15.625-15.625v-187.5c0-8.633-6.992-15.625-15.625-15.625h-312.5C6.992 250 0 256.992 0 265.625v187.5c0 8.633 6.992 15.625 15.625 15.625zm15.625-187.5H312.5V437.5H31.25zm0 0" data-original="#000000"/><path d="M98.328 317.078l-31.25 31.25c-6.098 6.106-6.098 15.988 0 22.094l31.25 31.25 22.094-22.094-20.203-20.203 20.203-20.203zm147.094 0l-22.094 22.094 20.203 20.203-20.203 20.203 22.094 22.094 31.25-31.25c6.098-6.106 6.098-15.988 0-22.094zm-104.008 84.231l31.266-93.762 29.656 9.89-31.281 93.754zM921.875 93.75h-531.25c-8.633 0-15.625 6.992-15.625 15.625v312.5c0 8.633 6.992 15.625 15.625 15.625h531.25c8.633 0 15.625-6.992 15.625-15.625v-312.5c0-8.633-6.992-15.625-15.625-15.625zm-15.625 312.5h-500v-38.031l140.313-84.188L683.355 372.5a15.607 15.607 0 0015.625.75l113.122-58.594 94.148 53.781zm0-73.797l-85.938-49.14a15.62 15.62 0 00-14.94-.313l-112.606 58.332L555.422 252.5a15.631 15.631 0 00-16.535-.266L406.25 331.781V125h500zm0 0" data-original="#000000"/><path d="M742.188 265.625c30.203 0 54.687-24.484 54.687-54.688 0-30.203-24.484-54.687-54.688-54.687-30.203 0-54.687 24.484-54.687 54.688 0 30.203 24.484 54.687 54.688 54.687zm0-78.125c12.945 0 23.437 10.492 23.437 23.438 0 12.945-10.492 23.437-23.438 23.437-12.945 0-23.437-10.492-23.437-23.438 0-12.945 10.492-23.437 23.438-23.437zM156.25 515.625v187.5c0 8.633 6.992 15.625 15.625 15.625H562.5c8.633 0 15.625-6.992 15.625-15.625v-187.5c0-8.633-6.992-15.625-15.625-15.625H171.875c-8.633 0-15.625 6.992-15.625 15.625zm31.25 15.625h359.375V687.5H187.5zm0 0" data-original="#000000"/><path d="M218.75 562.5h62.5v31.25h-62.5zm93.75 0h140.625v31.25H312.5zm171.875 0h31.25v31.25h-31.25zM218.75 625h187.5v31.25h-187.5zm218.75 0h78.125v31.25H437.5zM156.25 62.5h31.25v31.25h-31.25zm62.5 0H250v31.25h-31.25zm62.5 0h31.25v31.25h-31.25zm-125 62.5h187.5v31.25h-187.5zm765.625 437.5H625c-8.633 0-15.625 6.992-15.625 15.625v187.5c0 8.633 6.992 15.625 15.625 15.625h296.875c8.633 0 15.625-6.992 15.625-15.625v-187.5c0-8.633-6.992-15.625-15.625-15.625zM906.25 750H640.625V593.75H906.25zm0 0" data-original="#000000"/><path d="M671.875 625h31.25v31.25h-31.25zm0 62.5h31.25v31.25h-31.25zm62.5-62.5H875v31.25H734.375zm0 62.5H875v31.25H734.375zM812.5 468.75h31.25v62.5H812.5zm0 0" data-original="#000000"/></g></svg>